<svg xmlns="http://www.w3.org/2000/svg" width="32" height="32" viewBox="0 0 32 32">
  <!-- Background circle -->
  <circle cx="16" cy="16" r="16" fill="#2563eb"/>
  
  <!-- Support/headset icon -->
  <g fill="white">
    <!-- Headband -->
    <path d="M8 14c0-4.4 3.6-8 8-8s8 3.6 8 8v6c0 1.1-.9 2-2 2h-1v-2h1V14c0-3.3-2.7-6-6-6s-6 2.7-6 6v6h1v2H9c-1.1 0-2-.9-2-2v-6z"/>
    
    <!-- Left earpiece -->
    <rect x="6" y="16" width="3" height="6" rx="1.5"/>
    
    <!-- Right earpiece -->
    <rect x="23" y="16" width="3" height="6" rx="1.5"/>
    
    <!-- Microphone -->
    <rect x="14" y="22" width="4" height="2" rx="1"/>
    <rect x="15" y="20" width="2" height="4" rx="1"/>
  </g>
</svg>